# xmcd CD database file generated by Grip 3.0.1
# 
# Track frame offsets:
#       150
#       17763
#       36565
#       51913
#       88873
#       92595
#       109638
#       125805
#       140963
#       157370
#       178020
# 
# Disc length: 2645 seconds
# 
# Revision: 2
# Processed by: cddbd v1.4PL0 Copyright (c) Steve Scherf et al.
# Submitted via: Grip 3.0.1
# 
DISCID=a50a530b
DTITLE=Joe Ely - Lord Of The Highway
DYEAR=1987
DGENRE=Rock
TTITLE0=Lord Of The Highway
TTITLE1=(Don't Put A) Lock On My Heart
TTITLE2=Me And Billy The Kid
TTITLE3=Letter To L.A.
TTITLE4=No Rope, Daisy-O
TTITLE5=My Baby Thinks She's French
TTITLE6=Everybody Got Hammered
TTITLE7=Are You Listenin' Lucky?
TTITLE8=Row Of Dominoes
TTITLE9=Silver City
TTITLE10=Screaming Blue Jillions
EXTD=
EXTT0=
EXTT1=
EXTT2=
EXTT3=
EXTT4=
EXTT5=
EXTT6=
EXTT7=
EXTT8=
EXTT9=
EXTT10=
PLAYORDER=
